<svg width="32" height="32" viewBox="0 0 32 32" fill="none" xmlns="http://www.w3.org/2000/svg">
<path d="M28.9867 27.347L27.84 26.2003C28.44 25.2936 28.7867 24.2136 28.7867 23.0536C28.7867 19.8936 26.2267 17.3203 23.0534 17.3203C19.88 17.3203 17.3334 19.8936 17.3334 23.067C17.3334 26.2403 19.8934 28.8003 23.0667 28.8003C24.2267 28.8003 25.3067 28.4536 26.2134 27.8536L27.36 29.0003C27.5867 29.227 27.88 29.347 28.1867 29.347C28.4934 29.347 28.7867 29.227 29.0134 29.0003C29.4534 28.5336 29.4534 27.8003 28.9867 27.347Z" fill="white"/>
<path d="M29.3333 11.6399C29.3333 13.2265 29.08 14.6932 28.64 16.0532C28.56 16.3332 28.2266 16.4132 27.9866 16.2399C26.5333 15.1599 24.76 14.5865 22.9333 14.5865C18.3066 14.5865 14.5333 18.3599 14.5333 22.9865C14.5333 24.4265 14.9066 25.8399 15.6133 27.0932C15.8266 27.4665 15.5733 27.9465 15.1733 27.7999C11.96 26.7065 5.46663 22.7199 3.35996 16.0532C2.91996 14.6932 2.66663 13.2265 2.66663 11.6399C2.66663 7.51986 5.98663 4.18652 10.08 4.18652C12.4933 4.18652 14.6533 5.35986 16 7.15986C17.3466 5.35986 19.5066 4.18652 21.92 4.18652C26.0133 4.18652 29.3333 7.51986 29.3333 11.6399Z" fill="white"/>
</svg>
