<svg width="32" height="32" viewBox="0 0 32 32" fill="none" xmlns="http://www.w3.org/2000/svg">
<path d="M24.6266 22.4403L25.1466 26.6537C25.28 27.7603 24.0933 28.5337 23.1466 27.9603L18.5333 25.2137C18.2133 25.027 18.1333 24.627 18.3066 24.307C18.9733 23.0803 19.3333 21.6937 19.3333 20.307C19.3333 15.427 15.1466 11.4537 9.99998 11.4537C8.94665 11.4537 7.91998 11.6137 6.95998 11.9337C6.46665 12.0937 5.98665 11.6403 6.10665 11.1337C7.31998 6.28033 11.9866 2.66699 17.56 2.66699C24.0666 2.66699 29.3333 7.58699 29.3333 13.6537C29.3333 17.2537 27.48 20.4403 24.6266 22.4403Z" fill="white"/>
<path d="M17.3334 20.3065C17.3334 21.8931 16.7467 23.3598 15.76 24.5198C14.44 26.1198 12.3467 27.1465 10 27.1465L6.52002 29.2131C5.93335 29.5731 5.18669 29.0798 5.26669 28.3998L5.60002 25.7731C3.81335 24.5331 2.66669 22.5465 2.66669 20.3065C2.66669 17.9598 3.92002 15.8931 5.84002 14.6665C7.02669 13.8931 8.45335 13.4531 10 13.4531C14.0534 13.4531 17.3334 16.5198 17.3334 20.3065Z" fill="white"/>
</svg>
