<svg width="32" height="32" viewBox="0 0 32 32" fill="none" xmlns="http://www.w3.org/2000/svg">
<path d="M19.7867 14.5338L27.3334 9.48044C28.0934 8.97377 28.2934 7.93377 27.7867 7.1871L25.36 3.57377C24.8534 2.81377 23.8134 2.61377 23.0667 3.12044L15.52 8.17377L19.7867 14.5338Z" fill="white"/>
<path d="M19.36 13.8931L17.0134 15.4665L13.4534 17.8531L12.9867 18.1598L12.7734 17.8398L9.7867 13.3865L9.57336 13.0665L15.9467 8.7998L19.36 13.8931Z" fill="white"/>
<path d="M7.51997 21.3601L12.7866 17.8401L9.79997 13.3867L4.5333 16.9067C3.91997 17.3201 3.75997 18.1467 4.1733 18.7601L5.67997 21.0001C6.07997 21.6134 6.90663 21.7734 7.51997 21.3601Z" fill="white"/>
<path d="M22.08 29.0801C21.9466 29.1335 21.8 29.1735 21.6666 29.1735C21.28 29.1735 20.92 28.9468 20.7466 28.5735L15.7733 17.5868L10.7333 28.5868C10.56 28.9468 10.2 29.1735 9.81332 29.1735C9.67998 29.1735 9.53332 29.1335 9.39998 29.0801C8.90665 28.8401 8.67998 28.2535 8.90665 27.7468L13.4533 17.8535L17.0133 15.4668L22.5733 27.7601C22.8 28.2535 22.5733 28.8535 22.08 29.0801Z" fill="white"/>
</svg>
