<svg width="32" height="32" viewBox="0 0 32 32" fill="none" xmlns="http://www.w3.org/2000/svg">
<path d="M28.4 14.4532C28.92 14.4532 29.3334 14.0398 29.3334 13.5198V12.2798C29.3334 6.81315 27.6667 5.14648 22.2 5.14648H9.80002C4.33335 5.14648 2.66669 6.81315 2.66669 12.2798V12.9065C2.66669 13.4265 3.08002 13.8398 3.60002 13.8398C4.80002 13.8398 5.77335 14.8132 5.77335 16.0132C5.77335 17.2132 4.80002 18.1732 3.60002 18.1732C3.08002 18.1732 2.66669 18.5865 2.66669 19.1065V19.7332C2.66669 25.1998 4.33335 26.8665 9.80002 26.8665H22.2C27.6667 26.8665 29.3334 25.1998 29.3334 19.7332C29.3334 19.2132 28.92 18.7998 28.4 18.7998C27.2 18.7998 26.2267 17.8265 26.2267 16.6265C26.2267 15.4265 27.2 14.4532 28.4 14.4532ZM12 11.8398C12.7334 11.8398 13.3334 12.4398 13.3334 13.1732C13.3334 13.9065 12.7467 14.5065 12 14.5065C11.2667 14.5065 10.6667 13.9065 10.6667 13.1732C10.6667 12.4398 11.2534 11.8398 12 11.8398ZM20 21.1732C19.2534 21.1732 18.6534 20.5732 18.6534 19.8398C18.6534 19.1065 19.2534 18.5065 19.9867 18.5065C20.72 18.5065 21.32 19.1065 21.32 19.8398C21.32 20.5732 20.7467 21.1732 20 21.1732ZM21.2 12.6398L12.2267 21.6131C12.0267 21.8131 11.7734 21.9065 11.52 21.9065C11.2667 21.9065 11.0134 21.8131 10.8134 21.6131C10.4267 21.2265 10.4267 20.5865 10.8134 20.1998L19.7867 11.2265C20.1734 10.8398 20.8134 10.8398 21.2 11.2265C21.5867 11.6132 21.5867 12.2532 21.2 12.6398Z" fill="white"/>
</svg>
